<?xml version="1.0" encoding="UTF-8" standalone="no"?>
<!DOCTYPE svg PUBLIC "-//W3C//DTD SVG 1.1//EN" "http://www.w3.org/Graphics/SVG/1.1/DTD/svg11.dtd">
<svg width="100%" height="100%" viewBox="0 0 304 92" version="1.1" xmlns="http://www.w3.org/2000/svg" xmlns:xlink="http://www.w3.org/1999/xlink" xml:space="preserve" xmlns:serif="http://www.serif.com/" style="fill-rule:evenodd;clip-rule:evenodd;stroke-linejoin:round;stroke-miterlimit:2;">
    <g transform="matrix(1,0,0,1,-5095.97,-26.5771)">
        <g transform="matrix(75.2368,0,0,75.2368,5095.44,98.7153)">
            <path d="M0.624,-0.072C0.591,-0.044 0.555,-0.022 0.515,-0.007C0.474,0.008 0.432,0.015 0.389,0.015C0.356,0.015 0.324,0.011 0.293,0.002C0.262,-0.006 0.234,-0.019 0.207,-0.034C0.18,-0.05 0.155,-0.069 0.133,-0.091C0.111,-0.113 0.092,-0.138 0.076,-0.165C0.061,-0.192 0.048,-0.22 0.04,-0.251C0.031,-0.282 0.027,-0.314 0.027,-0.347C0.027,-0.38 0.031,-0.412 0.04,-0.443C0.048,-0.474 0.061,-0.503 0.076,-0.53C0.092,-0.557 0.111,-0.581 0.133,-0.604C0.155,-0.626 0.18,-0.645 0.207,-0.66C0.234,-0.676 0.262,-0.688 0.293,-0.697C0.324,-0.706 0.356,-0.71 0.389,-0.71C0.432,-0.71 0.474,-0.703 0.515,-0.688C0.555,-0.673 0.591,-0.651 0.624,-0.623L0.55,-0.501C0.529,-0.523 0.505,-0.54 0.477,-0.552C0.449,-0.564 0.42,-0.57 0.389,-0.57C0.358,-0.57 0.329,-0.564 0.302,-0.552C0.275,-0.541 0.252,-0.525 0.231,-0.505C0.211,-0.485 0.195,-0.461 0.184,-0.434C0.172,-0.407 0.166,-0.378 0.166,-0.347C0.166,-0.317 0.172,-0.288 0.184,-0.261C0.195,-0.234 0.211,-0.211 0.231,-0.19C0.252,-0.17 0.275,-0.154 0.302,-0.143C0.329,-0.131 0.358,-0.125 0.389,-0.125C0.42,-0.125 0.449,-0.131 0.477,-0.143C0.505,-0.155 0.529,-0.172 0.55,-0.194L0.624,-0.072Z" style="fill:rgb(0,166,223);fill-rule:nonzero;"/>
        </g>
        <g transform="matrix(75.2368,0,0,75.2368,5200.62,98.7153)">
            <path d="M0.205,-0.56L0.205,-0.28L0.345,-0.28C0.364,-0.28 0.382,-0.283 0.399,-0.291C0.416,-0.298 0.431,-0.308 0.444,-0.321C0.457,-0.333 0.467,-0.348 0.474,-0.365C0.481,-0.383 0.485,-0.401 0.485,-0.42C0.485,-0.439 0.481,-0.457 0.474,-0.474C0.467,-0.491 0.457,-0.506 0.444,-0.519C0.431,-0.532 0.416,-0.542 0.399,-0.549C0.382,-0.556 0.364,-0.56 0.345,-0.56L0.205,-0.56ZM0.205,0L0.065,0L0.065,-0.7L0.345,-0.7C0.371,-0.7 0.396,-0.697 0.419,-0.69C0.443,-0.684 0.465,-0.674 0.486,-0.662C0.507,-0.65 0.526,-0.635 0.543,-0.618C0.56,-0.601 0.574,-0.582 0.587,-0.561C0.599,-0.54 0.608,-0.518 0.615,-0.494C0.622,-0.47 0.625,-0.446 0.625,-0.42C0.625,-0.396 0.622,-0.372 0.616,-0.35C0.61,-0.327 0.601,-0.305 0.59,-0.285C0.579,-0.264 0.565,-0.245 0.549,-0.228C0.533,-0.211 0.514,-0.196 0.494,-0.183L0.572,0L0.423,0L0.362,-0.141L0.205,-0.14L0.205,0Z" style="fill:rgb(0,166,223);fill-rule:nonzero;"/>
        </g>
        <g transform="matrix(75.2368,0,0,75.2368,5249.66,98.7153)">
            <path d="M0.625,-0.21C0.625,-0.181 0.619,-0.154 0.608,-0.128C0.597,-0.103 0.582,-0.081 0.563,-0.062C0.544,-0.043 0.522,-0.028 0.497,-0.017C0.471,-0.006 0.444,0 0.415,0L0.065,0L0.065,-0.7L0.415,-0.7C0.444,-0.7 0.471,-0.695 0.497,-0.684C0.522,-0.673 0.544,-0.657 0.563,-0.638C0.582,-0.619 0.597,-0.597 0.608,-0.572C0.619,-0.546 0.625,-0.519 0.625,-0.49C0.625,-0.477 0.623,-0.464 0.62,-0.45C0.616,-0.437 0.611,-0.423 0.604,-0.411C0.598,-0.398 0.59,-0.386 0.581,-0.376C0.572,-0.366 0.562,-0.357 0.551,-0.35C0.562,-0.344 0.572,-0.336 0.582,-0.325C0.591,-0.314 0.598,-0.303 0.605,-0.29C0.611,-0.277 0.616,-0.264 0.62,-0.25C0.623,-0.236 0.625,-0.223 0.625,-0.21ZM0.205,-0.14L0.415,-0.14C0.425,-0.14 0.434,-0.142 0.442,-0.146C0.451,-0.149 0.458,-0.154 0.465,-0.16C0.471,-0.167 0.476,-0.174 0.479,-0.183C0.483,-0.191 0.485,-0.2 0.485,-0.21C0.485,-0.22 0.483,-0.229 0.479,-0.237C0.476,-0.246 0.471,-0.253 0.465,-0.26C0.458,-0.266 0.451,-0.271 0.442,-0.274C0.434,-0.278 0.425,-0.28 0.415,-0.28L0.205,-0.28L0.205,-0.14ZM0.205,-0.42L0.415,-0.42C0.425,-0.42 0.434,-0.422 0.442,-0.425C0.451,-0.429 0.458,-0.434 0.465,-0.44C0.471,-0.447 0.476,-0.454 0.479,-0.463C0.483,-0.471 0.485,-0.48 0.485,-0.49C0.485,-0.5 0.483,-0.509 0.479,-0.518C0.476,-0.526 0.471,-0.533 0.465,-0.54C0.458,-0.546 0.451,-0.551 0.442,-0.555C0.434,-0.558 0.425,-0.56 0.415,-0.56L0.205,-0.56L0.205,-0.42Z" style="fill:rgb(0,166,223);fill-rule:nonzero;"/>
        </g>
        <g transform="matrix(75.2368,0,0,75.2368,5299.77,98.7153)">
            <path d="M0.545,0L0.065,0L0.065,-0.7L0.545,-0.7L0.545,-0.56L0.205,-0.56L0.205,-0.42L0.435,-0.42L0.435,-0.28L0.205,-0.28L0.205,-0.14L0.545,-0.14L0.545,0Z" style="fill:rgb(0,166,223);fill-rule:nonzero;"/>
        </g>
        <g transform="matrix(75.2368,0,0,75.2368,5341.98,98.7153)">
            <path d="M0.751,-0.347C0.751,-0.314 0.747,-0.282 0.738,-0.251C0.729,-0.22 0.717,-0.192 0.702,-0.165C0.686,-0.138 0.667,-0.113 0.645,-0.091C0.623,-0.069 0.598,-0.05 0.572,-0.034C0.545,-0.019 0.516,-0.006 0.485,0.002C0.454,0.011 0.422,0.015 0.389,0.015C0.356,0.015 0.324,0.011 0.293,0.002C0.262,-0.006 0.234,-0.019 0.207,-0.034C0.18,-0.05 0.155,-0.069 0.133,-0.091C0.111,-0.113 0.092,-0.138 0.076,-0.165C0.061,-0.192 0.048,-0.22 0.04,-0.251C0.031,-0.282 0.027,-0.314 0.027,-0.347C0.027,-0.38 0.031,-0.412 0.04,-0.443C0.048,-0.474 0.061,-0.503 0.076,-0.53C0.092,-0.556 0.111,-0.581 0.133,-0.603C0.155,-0.625 0.18,-0.644 0.207,-0.66C0.234,-0.675 0.262,-0.687 0.293,-0.696C0.324,-0.705 0.356,-0.709 0.389,-0.709C0.422,-0.709 0.454,-0.705 0.485,-0.696C0.516,-0.687 0.545,-0.675 0.572,-0.66C0.598,-0.644 0.623,-0.625 0.645,-0.603C0.667,-0.581 0.686,-0.556 0.702,-0.53C0.717,-0.503 0.729,-0.474 0.738,-0.443C0.747,-0.412 0.751,-0.38 0.751,-0.347ZM0.612,-0.347C0.612,-0.378 0.606,-0.407 0.594,-0.434C0.583,-0.461 0.567,-0.485 0.547,-0.505C0.527,-0.525 0.503,-0.541 0.476,-0.552C0.449,-0.564 0.42,-0.57 0.389,-0.57C0.358,-0.57 0.329,-0.564 0.302,-0.552C0.275,-0.541 0.252,-0.525 0.231,-0.505C0.211,-0.485 0.195,-0.461 0.184,-0.434C0.172,-0.407 0.166,-0.378 0.166,-0.347C0.166,-0.317 0.172,-0.288 0.184,-0.261C0.195,-0.234 0.211,-0.211 0.231,-0.19C0.252,-0.17 0.275,-0.154 0.302,-0.143C0.329,-0.131 0.358,-0.125 0.389,-0.125C0.42,-0.125 0.449,-0.131 0.476,-0.143C0.503,-0.154 0.527,-0.17 0.547,-0.19C0.567,-0.211 0.583,-0.234 0.594,-0.261C0.606,-0.288 0.612,-0.317 0.612,-0.347Z" style="fill:rgb(0,166,223);fill-rule:nonzero;"/>
        </g>
        <g transform="matrix(0.0941309,0,0,0.0941309,4846.01,-89.6845)">
            <circle cx="3497.33" cy="1723.79" r="217.529" style="fill:rgb(0,166,223);"/>
        </g>
        <g transform="matrix(0.125395,0,0,0.125395,4282.5,-483.786)">
            <path d="M6981.31,4349.44C6988.57,4348.92 6995.89,4348.66 7003.28,4348.66C7116.81,4348.66 7215.96,4410.66 7268.71,4502.62C7243.4,4560.06 7185.95,4600.19 7119.2,4600.19C7029.08,4600.19 6955.91,4527.02 6955.91,4436.9C6955.91,4404.73 6965.23,4374.73 6981.31,4349.44Z" style="fill:rgb(0,188,229);"/>
        </g>
        <g transform="matrix(0.125395,0,0,0.125395,5084.25,-273.122)">
            <path d="M552.593,2593.02C516.158,2631.92 493.837,2684.2 493.837,2741.65C493.837,2861.71 591.309,2959.18 711.366,2959.18C766.088,2959.18 816.118,2938.93 854.364,2905.52C814.66,2947.91 758.196,2974.42 695.591,2974.42C575.533,2974.42 478.062,2876.94 478.062,2756.89C478.062,2691.55 506.928,2632.9 552.593,2593.02Z" style="fill:rgb(115,115,115);"/>
        </g>
        <g transform="matrix(-0.0064224,0.113449,-0.113322,-0.00641524,5489.67,8.79456)">
            <path d="M552.593,2593.02C516.158,2631.92 493.837,2684.2 493.837,2741.65C493.837,2861.71 591.309,2959.18 711.366,2959.18C766.088,2959.18 816.118,2938.93 854.364,2905.52C814.66,2947.91 758.196,2974.42 695.591,2974.42C575.533,2974.42 478.062,2876.94 478.062,2756.89C478.062,2691.55 506.928,2632.9 552.593,2593.02Z" style="fill:rgb(115,115,115);"/>
        </g>
    </g>
</svg>
